<?xml version="1.0" encoding="UTF-8"?><svg id="_레이어_2" xmlns="http://www.w3.org/2000/svg" viewBox="0 0 33.79 22.8"><defs><style>.cls-1{fill:#fff;}</style></defs><g id="_레이어_1-2"><g id="a8gO4i"><g><path class="cls-1" d="M0,22.69c.33-1.05,.67-2.09,.99-3.14C2.96,13.16,4.93,6.77,6.88,.37,6.97,.09,7.08,0,7.38,0c2.04,.02,4.07,.01,6.11,0,.27,0,.37,.08,.46,.33,1.89,6.02,3.78,12.03,5.68,18.04,.03,.1,.07,.2,.13,.38,.06-.16,.09-.25,.12-.35,1.21-3.89,2.43-7.78,3.63-11.67,.09-.28,.21-.35,.48-.34,1.42,.01,2.84,.01,4.26,0,.25,0,.36,.06,.44,.31,1.67,5.27,3.35,10.53,5.02,15.8,.03,.08,.05,.16,.08,.27-.12,0-.22,.02-.32,.02-1.16,0-2.31,0-3.47,0-.23,0-.32-.06-.39-.29-.36-1.29-.74-2.57-1.11-3.87-.07-.24-.17-.32-.43-.32-1.39,.01-2.77,.01-4.16,0-.25,0-.34,.08-.4,.31-.33,1.28-.68,2.55-1.01,3.82-.07,.26-.18,.34-.44,.34-2.11-.02-4.23-.02-6.34,0-.31,0-.41-.11-.49-.38-.52-1.82-1.05-3.63-1.57-5.45-.07-.23-.16-.31-.4-.31-1.99,0-3.98,0-5.98,0-.25,0-.33,.08-.39,.32-.48,1.83-.98,3.65-1.45,5.48-.07,.26-.17,.34-.45,.34-1.56-.01-3.13,0-4.69,0-.11,0-.22-.01-.33-.02,0-.02,0-.04,0-.07ZM12.81,12.93c-.87-3.08-1.74-6.12-2.59-9.11-.79,3-1.6,6.05-2.41,9.11h4.99Zm13.16-3.93c-.58,2.21-1.17,4.41-1.75,6.63h3.63c-.63-2.22-1.25-4.42-1.88-6.63Z"/><path class="cls-1" d="M25.91,4.17c-1.35-1.35-2.74-2.74-4.14-4.14h8.28c-1.37,1.37-2.76,2.76-4.14,4.14Z"/></g></g></g></svg>